# xmcd CD database file
#
# Track frame offsets:
#	150
#	19062
#	33531
#	45580
#	57066
#	77950
#	99964
#	112955
#
# Disc length: 1736 seconds
#
# Revision: 2
# Processed by: cddbd v1.5.2PL0 Copyright (c) Steve Scherf et al.
# Submitted via: CDex 1.70beta2
#
DISCID=5806c608
DTITLE=Tucker, Tanya - Live! You are So Beautiful
DYEAR=1900
DGENRE=Country
TTITLE0=Delta Dawn
TTITLE1=What's Your Mama's Name
TTITLE2=San Antonio Stroll
TTITLE3=Pecos Promenade
TTITLE4=Texas(When I Die)
TTITLE5=Baby I'm Yours
TTITLE6=You Are So Beautiful
TTITLE7=The Night They Drove Ol' Dixie Down
EXTD=
EXTT0=
EXTT1=
EXTT2=
EXTT3=
EXTT4=
EXTT5=
EXTT6=
EXTT7=
PLAYORDER=
